<svg width="388" height="362" viewBox="0 0 388 362" fill="none" xmlns="http://www.w3.org/2000/svg">
<path d="M203.967 4.49539C113.71 1.74949 35.5282 69.2265 23.717 157.765C10.8017 254.569 81.8817 341.671 169.344 355.621C278.131 372.974 383.648 272.59 374.175 163.688C367.035 81.6392 295.715 7.2867 203.967 4.49539Z" fill="#F1F5FF"/>
<path d="M121.992 211.023L123.467 218.599C120.175 219.906 117.033 221.473 114.079 223.297L109.036 217.495C107.66 215.912 105.261 215.765 103.674 217.163L93.7492 225.927C92.1604 227.33 91.9854 229.755 93.3589 231.345L98.4462 237.227C96.2582 239.982 94.3043 242.921 92.6111 246.014L85.2439 243.504C83.2573 242.826 81.0844 243.914 80.3907 245.931L76.0437 258.572C75.3475 260.597 76.3949 262.792 78.3865 263.473L85.7789 266.004C85.23 269.463 84.9858 273.001 85.0387 276.582L77.3038 278.162C75.2279 278.586 73.8619 280.637 74.2535 282.745L76.7109 295.95C77.1049 298.066 79.1129 299.437 81.1952 299.012L88.9527 297.427C90.2065 300.788 91.7223 303.997 93.4961 307.016L87.5313 312.328C85.9224 313.761 85.7437 316.243 87.1322 317.873L95.8314 328.086C97.225 329.722 99.6623 329.883 101.272 328.444L107.237 323.116C109.97 325.369 112.895 327.372 115.974 329.11L113.407 336.752C112.712 338.822 113.785 341.068 115.805 341.77L128.45 346.16C130.474 346.863 132.676 345.75 133.366 343.677L135.892 336.092C139.36 336.646 142.908 336.877 146.498 336.799L148.028 344.649C148.447 346.799 150.489 348.194 152.59 347.765L165.726 345.081C167.825 344.652 169.184 342.562 168.76 340.414L167.22 332.63C170.586 331.306 173.794 329.704 176.807 327.838L181.923 333.755C183.343 335.397 185.795 335.56 187.398 334.116L197.409 325.096C199.008 323.656 199.15 321.161 197.727 319.524L192.627 313.656C194.853 310.819 196.825 307.788 198.527 304.602L205.788 307.088C207.818 307.783 210.006 306.677 210.674 304.62L214.847 291.777C215.513 289.727 214.411 287.506 212.386 286.816L205.194 284.366C205.709 280.825 205.902 277.208 205.787 273.552L213.206 272.036C215.288 271.611 216.624 269.556 216.188 267.449L213.47 254.297C213.036 252.198 211.001 250.842 208.925 251.266L201.529 252.777C200.204 249.394 198.614 246.173 196.763 243.153L202.38 238.136C203.96 236.724 204.099 234.287 202.691 232.692L193.907 222.734C192.504 221.144 190.089 220.995 188.511 222.401L182.857 227.436C180.087 225.227 177.135 223.265 174.029 221.577L176.43 214.367C177.099 212.36 176.021 210.192 174.026 209.521L161.556 205.332C159.564 204.664 157.405 205.743 156.733 207.744L154.306 214.97C150.874 214.462 147.367 214.262 143.819 214.371L142.333 206.861C141.924 204.795 139.924 203.46 137.866 203.882L124.991 206.513C122.932 206.939 121.589 208.956 121.992 211.023ZM107.3 282.841C103.248 261.601 116.912 241.016 137.798 236.749C158.683 232.482 179.066 246.11 183.347 267.302C187.653 288.624 174.047 309.501 152.932 313.815C131.818 318.13 111.377 304.21 107.3 282.841Z" fill="#D8DEE8"/>
<path d="M188.888 177.121L189.322 179.349C188.354 179.734 187.43 180.194 186.561 180.731L185.078 179.025C184.674 178.559 183.968 178.515 183.502 178.928L180.582 181.505C180.115 181.917 180.064 182.631 180.468 183.098L181.963 184.828C181.32 185.638 180.745 186.502 180.248 187.413L178.081 186.675C177.497 186.475 176.857 186.796 176.653 187.389L175.374 191.106C175.169 191.701 175.477 192.347 176.063 192.547L178.237 193.292C178.076 194.308 178.004 195.349 178.019 196.402L175.744 196.866C175.134 196.991 174.732 197.594 174.848 198.213L175.571 202.097C175.686 202.719 176.277 203.122 176.889 202.998L179.17 202.531C179.539 203.52 179.984 204.463 180.506 205.351L178.752 206.914C178.279 207.335 178.226 208.066 178.635 208.545L181.193 211.548C181.603 212.029 182.32 212.077 182.793 211.654L184.547 210.087C185.351 210.75 186.211 211.339 187.116 211.851L186.361 214.098C186.157 214.706 186.472 215.367 187.066 215.574L190.785 216.866C191.38 217.073 192.027 216.746 192.23 216.136L192.973 213.905C193.992 214.068 195.036 214.136 196.092 214.114L196.542 216.422C196.665 217.054 197.266 217.464 197.884 217.338L201.747 216.548C202.366 216.422 202.765 215.808 202.64 215.176L202.187 212.886C203.178 212.497 204.121 212.026 205.007 211.477L206.511 213.218C206.929 213.701 207.651 213.749 208.121 213.324L211.066 210.671C211.537 210.248 211.578 209.514 211.159 209.033L209.66 207.307C210.314 206.474 210.895 205.582 211.395 204.645L213.53 205.376C214.126 205.581 214.77 205.255 214.966 204.65L216.194 200.873C216.39 200.271 216.065 199.617 215.47 199.414L213.355 198.694C213.506 197.653 213.562 196.589 213.53 195.514L215.711 195.069C216.323 194.944 216.716 194.34 216.589 193.719L215.789 189.852C215.662 189.235 215.063 188.835 214.452 188.96L212.277 189.404C211.887 188.409 211.42 187.462 210.876 186.574L212.528 185.098C212.992 184.683 213.034 183.967 212.619 183.497L210.036 180.569C209.623 180.101 208.913 180.058 208.45 180.47L206.787 181.951C205.972 181.302 205.104 180.724 204.191 180.228L204.897 178.108C205.094 177.518 204.776 176.879 204.19 176.683L200.523 175.45C199.937 175.253 199.301 175.571 199.104 176.159L198.39 178.284C197.38 178.134 196.349 178.076 195.306 178.108L194.869 175.899C194.748 175.291 194.16 174.899 193.554 175.023L189.768 175.796C189.164 175.921 188.769 176.514 188.888 177.121ZM184.567 198.242C183.375 191.996 187.393 185.942 193.535 184.687C199.678 183.432 205.671 187.439 206.93 193.673C208.197 199.943 204.196 206.083 197.986 207.352C191.777 208.621 185.767 204.526 184.567 198.242Z" fill="#D8DEE8"/>
<path d="M254.146 78.3534L52.852 71.7252C46.1016 71.5032 40.6064 76.8373 40.6064 83.6422V280.207C40.6064 287.01 46.1016 292.292 52.852 292.003L254.145 283.39C259.967 283.142 264.668 277.847 264.668 271.566V90.0749C264.67 83.7923 259.967 78.5439 254.146 78.3534Z" fill="url(#paint0_linear_65_184)"/>
<path d="M52.8523 288.085C48.261 288.276 44.5283 284.681 44.5283 280.056V83.7544C44.5283 79.1292 48.261 75.4978 52.8523 75.6429L254.147 81.9987C258.112 82.1235 261.319 85.6956 261.319 89.9778V271.694C261.319 275.976 258.112 279.58 254.147 279.744L52.8523 288.085Z" fill="url(#paint1_linear_65_184)"/>
<path d="M254.146 78.3534L52.852 71.7252C46.1016 71.5032 40.6064 76.8373 40.6064 83.6422V92.4803L264.67 98.2344V90.0749C264.67 83.7923 259.969 78.5439 254.146 78.3534Z" fill="url(#paint2_linear_65_184)"/>
<path d="M62.3791 83.0821C62.3791 85.292 60.6028 87.0351 58.4084 86.9746C56.2116 86.914 54.4277 85.0674 54.4277 82.8513C54.4277 80.6352 56.2116 78.892 58.4084 78.9601C60.6028 79.027 62.3791 80.8723 62.3791 83.0821Z" fill="white"/>
<path d="M76.2381 83.4858C76.2381 85.6855 74.4794 87.4198 72.3053 87.3593C70.1286 87.2987 68.3623 85.4622 68.3623 83.2562C68.3623 81.0501 70.1286 79.3158 72.3053 79.3827C74.4782 79.4495 76.2381 81.286 76.2381 83.4858Z" fill="white"/>
<path d="M89.9634 83.8856C89.9634 86.0753 88.221 87.8008 86.0683 87.7415C83.913 87.6822 82.1631 85.8533 82.1631 83.6586C82.1631 81.4639 83.913 79.7371 86.0683 79.8027C88.221 79.8683 89.9634 81.696 89.9634 83.8856Z" fill="white"/>
<path d="M161.202 117.075L54.8799 115.16V121.423L161.202 123.109V117.075Z" fill="white"/>
<path d="M77.3579 136.744L54.8799 136.504V130.045L77.3579 130.335V136.744Z" fill="white"/>
<path d="M197.44 138.025L91.708 136.897V130.521L197.44 131.883V138.025Z" fill="white"/>
<path d="M113.622 147.941L91.708 147.791V141.413L113.622 141.613V147.941Z" fill="white"/>
<path d="M230.767 148.745L127.614 148.037V141.74L230.767 142.677V148.745Z" fill="white"/>
<path d="M113.622 158.75L91.708 158.683V152.306L113.622 152.422V158.75Z" fill="white"/>
<path d="M230.767 159.111L127.614 158.793V152.497L230.767 153.043V159.111Z" fill="white" fill-opacity="0.9"/>
<path d="M77.3579 169.586L54.8799 169.603V163.143L77.3579 163.177V169.586Z" fill="white"/>
<path d="M197.44 169.501L91.708 169.576V163.199L197.44 163.358V169.501Z" fill="white"/>
<path d="M113.622 180.369L91.708 180.469V174.092L113.622 174.041V180.369Z" fill="white"/>
<path d="M230.767 179.842L127.614 180.306V174.01L230.767 173.774V179.842Z" fill="white"/>
<path d="M113.622 191.18L91.708 191.362V184.985L113.622 184.851V191.18Z" fill="white"/>
<path d="M230.767 190.206L127.614 191.063V184.766L230.767 184.138V190.206Z" fill="white"/>
<path d="M113.622 201.99L91.708 202.255V195.877L113.622 195.662V201.99Z" fill="white"/>
<path d="M230.767 200.572L127.614 201.821V195.523L230.767 194.504V200.572Z" fill="white"/>
<path d="M149.318 212.232L127.951 212.571V206.274L149.318 205.983V212.232Z" fill="white"/>
<path d="M246.774 210.683L162.964 212.015V205.796L246.774 204.65V210.683Z" fill="white"/>
<path d="M77.3579 224.323L54.8799 224.765V218.306L77.3579 217.914V224.323Z" fill="white"/>
<path d="M197.44 221.959L91.708 224.04V217.663L197.44 215.816V221.959Z" fill="white"/>
<path d="M113.622 234.418L91.708 234.933V228.556L113.622 228.09V234.418Z" fill="white"/>
<path d="M230.767 231.667L127.614 234.09V227.793L230.767 225.599V231.667Z" fill="white"/>
<path d="M113.622 245.228L91.708 245.826V239.448L113.622 238.9V245.228Z" fill="white"/>
<path d="M230.767 242.033L127.614 244.847V238.549L230.767 235.965V242.033Z" fill="white"/>
<path d="M77.3579 257.165L54.8799 257.864V251.405L77.3579 250.756V257.165Z" fill="white"/>
<path d="M197.44 253.434L91.708 256.719V250.343L197.44 247.291V253.434Z" fill="white"/>
<path d="M113.622 266.848L91.708 267.611V261.235L113.622 260.519V266.848Z" fill="white"/>
<path d="M230.767 262.764L127.614 266.36V260.062L230.767 256.696V262.764Z" fill="white"/>
<g opacity="0.3">
<path d="M175.901 153.918C152.391 119.642 111.696 130.547 85.9526 92.6772C81.3097 85.8471 78.1598 78.8972 75.9995 72.4884L52.853 71.7266C46.1026 71.5046 40.6074 76.8387 40.6074 83.6436V280.208C40.6074 287.012 46.1026 292.293 52.853 292.004L246.775 283.709C242.332 277.29 203.64 253.512 193.645 217.006C184.502 183.619 190.086 174.598 175.901 153.918Z" fill="url(#paint3_linear_65_184)"/>
</g>
<path d="M255.367 127.787C259.038 129.654 263.649 127.94 265.668 123.958C267.687 119.976 266.347 115.233 262.676 113.365C262.486 113.268 262.292 113.187 262.097 113.109C262.779 110.906 263.293 108.685 263.638 106.463C263.848 106.463 264.06 106.46 264.274 106.439C268.462 106.065 271.786 102.209 271.699 97.8271C271.611 93.444 268.145 90.1948 263.956 90.5682C263.737 90.5884 263.522 90.6224 263.308 90.6603C262.87 88.4883 262.271 86.3667 261.515 84.3133C261.708 84.1997 261.899 84.0837 262.087 83.9525C265.67 81.4374 266.815 76.4729 264.645 72.8642C262.475 69.2556 257.812 68.3701 254.227 70.8852C254.044 71.0139 253.871 71.1539 253.7 71.2951C252.285 69.7273 250.733 68.2755 249.053 66.9486C249.172 66.7544 249.287 66.5576 249.392 66.352C251.41 62.37 254.047 58.0197 250.347 56.2097C241.789 52.0234 238.116 55.6068 236.098 59.59C235.993 59.7969 235.902 60.0063 235.817 60.2157C233.757 59.6392 231.671 59.2407 229.573 59.0212C229.585 58.7992 229.595 58.5785 229.592 58.354C229.503 53.9709 230.801 51.5996 226.598 51.5176C217.43 51.3397 214.337 55.3255 214.425 59.7086C214.43 59.9382 214.449 60.1614 214.472 60.3847C212.371 60.9851 210.307 61.752 208.299 62.679C208.204 62.4835 208.104 62.2893 207.991 62.1001C205.821 58.4914 201.156 57.606 197.573 60.1211C193.99 62.6362 192.845 67.6007 195.015 71.2094C195.126 71.3948 195.248 71.5676 195.371 71.7379C193.784 73.3284 192.298 75.0539 190.925 76.9068C190.747 76.7945 190.567 76.686 190.377 76.5889C186.706 74.7209 182.095 76.4363 180.077 80.4183C178.059 84.4003 179.398 89.1429 183.069 91.0109C183.259 91.108 183.453 91.1887 183.648 91.2669C182.966 93.4705 182.452 95.6917 182.107 97.9129C181.897 97.9129 181.686 97.9166 181.472 97.9356C177.283 98.3102 173.96 102.166 174.047 106.548C174.135 110.931 177.601 114.18 181.789 113.806C182.008 113.787 182.223 113.751 182.436 113.713C182.874 115.885 183.473 118.007 184.229 120.06C184.036 120.174 183.845 120.29 183.657 120.421C180.074 122.936 178.929 127.901 181.098 131.509C183.268 135.118 190.452 136.794 194.036 134.279C194.22 134.151 191.872 133.221 192.043 133.08C193.458 134.648 195.01 136.099 196.69 137.426C196.571 137.621 196.455 137.817 196.351 138.023C194.333 142.005 195.672 146.748 199.343 148.616C203.014 150.482 207.626 148.768 209.644 144.786C209.748 144.581 209.839 144.37 209.925 144.161C211.984 144.737 214.07 145.134 216.169 145.355C216.156 145.576 216.146 145.798 216.15 146.022C216.238 150.405 219.704 153.655 223.892 153.28C228.081 152.905 231.404 149.049 231.317 144.668C231.312 144.438 231.294 144.215 231.271 143.993C233.372 143.392 235.435 142.626 237.443 141.697C237.539 141.893 237.637 142.087 237.752 142.275C239.922 145.884 244.585 146.77 248.169 144.254C251.752 141.739 252.898 136.774 250.729 133.166C250.618 132.981 250.496 132.809 250.373 132.637C251.959 131.047 253.446 129.321 254.819 127.468C254.997 127.582 255.177 127.69 255.367 127.787ZM209.605 128.369C196.277 121.589 191.411 104.371 198.739 89.911C206.066 75.4512 222.811 69.2253 236.14 76.0062C249.469 82.7858 254.334 100.004 247.006 114.464C239.678 128.924 222.933 135.148 209.605 128.369Z" fill="url(#paint4_linear_65_184)"/>
<path d="M264.273 106.439C268.462 106.065 271.785 102.209 271.698 97.8271C271.61 93.444 268.144 90.1948 263.956 90.5682C263.737 90.5884 263.522 90.6224 263.308 90.6603C262.871 88.4883 262.27 86.3667 261.515 84.3133C261.708 84.201 261.899 84.0837 262.086 83.9525C265.669 81.4375 270.103 75.3604 267.574 71.9939C262.776 65.6053 257.811 68.3702 254.227 70.8852C254.043 71.0139 253.871 71.1539 253.7 71.2952C252.285 69.7273 250.732 68.2756 249.053 66.9486C249.171 66.7544 249.287 66.5576 249.392 66.352C250.491 64.1851 250.587 61.7949 249.861 59.7629C246.4 65.8664 242.986 71.9952 239.632 78.1568C250.265 85.9631 253.65 101.347 247.005 114.463C241.372 125.577 230.177 131.817 219.245 131.035C218.758 132.303 218.278 133.577 217.757 134.831C216.34 138.236 214.731 141.571 213.118 144.902C214.132 145.094 215.15 145.244 216.171 145.351C216.158 145.573 216.147 145.794 216.152 146.019C216.24 150.402 218.895 154.125 226.487 153.721C230.685 153.498 231.408 149.047 231.32 144.664C231.315 144.434 231.296 144.211 231.273 143.989C233.374 143.389 235.438 142.622 237.446 141.693C237.541 141.889 237.639 142.083 237.754 142.271C239.924 145.88 247.453 147.414 251.036 144.897C254.619 142.382 252.9 136.77 250.731 133.162C250.62 132.976 250.498 132.804 250.375 132.633C251.961 131.044 253.448 129.317 254.821 127.464C254.999 127.577 255.179 127.685 255.369 127.782C259.04 129.65 263.651 127.935 265.671 123.953C267.689 119.971 266.349 115.228 262.678 113.36C262.488 113.263 262.294 113.182 262.099 113.104C262.781 110.901 263.295 108.68 263.64 106.458C263.848 106.462 264.059 106.458 264.273 106.439Z" fill="url(#paint5_linear_65_184)"/>
<path d="M259.316 128.236C262.987 130.103 267.599 128.389 269.617 124.407C271.635 120.425 270.295 115.682 266.624 113.814C266.434 113.717 266.24 113.637 266.045 113.558C266.727 111.355 267.241 109.134 267.586 106.912C267.796 106.912 268.008 106.909 268.222 106.888C272.41 106.514 275.734 102.658 275.647 98.2761C275.559 93.893 272.093 90.6439 267.905 91.0172C267.686 91.0374 267.47 91.0714 267.257 91.1093C266.819 88.9373 266.22 86.8158 265.465 84.7623C265.657 84.6488 265.849 84.5328 266.036 84.4016C269.619 81.8865 270.765 76.9219 268.594 73.3133C266.424 69.7046 261.76 68.8192 258.177 71.3343C257.993 71.4629 257.821 71.6029 257.649 71.7442C256.234 70.1764 254.682 68.7233 253.003 67.3977C253.121 67.2034 253.237 67.0067 253.341 66.8011C255.359 62.8191 254.02 58.0765 250.349 56.2085C246.678 54.3417 242.066 56.0558 240.048 60.0378C239.944 60.2447 239.853 60.4541 239.766 60.6635C237.707 60.087 235.621 59.6885 233.522 59.469C233.535 59.247 233.546 59.025 233.541 58.8005C233.453 54.4174 229.987 51.1682 225.799 51.5428C221.61 51.9174 218.287 55.7733 218.374 60.1551C218.379 60.3847 218.397 60.608 218.42 60.8312C216.319 61.4316 214.256 62.1985 212.248 63.1256C212.152 62.9301 212.052 62.7358 211.939 62.5466C209.769 58.938 205.104 58.0525 201.522 60.5676C197.939 63.0827 196.793 68.0472 198.963 71.6559C199.074 71.8413 199.196 72.0141 199.32 72.1844C197.732 73.7749 196.247 75.5004 194.873 77.3533C194.696 77.2423 194.516 77.1326 194.326 77.0354C190.655 75.1674 186.043 76.8828 184.025 80.8648C182.007 84.8468 183.347 89.5894 187.018 91.4574C187.208 91.5545 187.402 91.6353 187.597 91.7135C186.914 93.917 186.401 96.1382 186.056 98.3594C185.845 98.3594 185.634 98.3632 185.42 98.3821C181.232 98.7567 177.908 102.613 177.995 106.994C178.083 111.378 181.549 114.627 185.737 114.252C185.956 114.233 186.172 114.198 186.384 114.16C186.822 116.332 187.422 118.454 188.177 120.507C187.984 120.62 187.793 120.737 187.605 120.868C184.023 123.383 182.877 128.347 185.047 131.956C187.218 135.565 191.882 136.45 195.465 133.935C195.649 133.806 195.821 133.668 195.992 133.525C197.407 135.093 198.96 136.546 200.639 137.872C200.521 138.066 200.405 138.263 200.3 138.468C198.282 142.45 199.622 147.193 203.293 149.061C206.964 150.928 211.575 149.213 213.593 145.231C213.698 145.026 213.789 144.815 213.874 144.606C215.934 145.182 218.02 145.58 220.118 145.8C220.106 146.021 220.094 146.243 220.1 146.469C220.188 150.852 223.653 154.101 227.842 153.726C232.03 153.352 235.354 149.496 235.267 145.114C235.262 144.885 235.243 144.661 235.22 144.439C237.322 143.839 239.385 143.072 241.393 142.144C241.489 142.339 241.588 142.533 241.701 142.721C243.872 146.33 248.535 147.217 252.119 144.7C255.702 142.185 256.847 137.221 254.678 133.612C254.568 133.428 254.445 133.255 254.322 133.084C255.908 131.493 257.395 129.768 258.769 127.915C258.946 128.031 259.126 128.141 259.316 128.236ZM213.553 128.818C200.225 122.038 195.359 104.82 202.687 90.3601C210.014 75.9003 226.76 69.6756 240.089 76.4552C253.417 83.2349 258.283 100.453 250.954 114.913C243.628 129.373 226.881 135.599 213.553 128.818Z" fill="url(#paint6_linear_65_184)"/>
<path d="M159.514 213.571C164.058 215.883 169.766 213.76 172.265 208.83C174.763 203.899 173.105 198.029 168.56 195.718C168.325 195.599 168.084 195.498 167.844 195.402C168.689 192.674 169.324 189.925 169.751 187.174C170.012 187.173 170.274 187.169 170.538 187.145C175.722 186.682 179.838 181.909 179.729 176.483C179.621 171.058 175.329 167.035 170.145 167.499C169.874 167.523 169.608 167.566 169.343 167.614C168.802 164.924 168.059 162.298 167.124 159.757C167.362 159.617 167.6 159.473 167.831 159.31C172.266 156.197 173.685 150.052 170.999 145.585C168.312 141.118 162.539 140.021 158.104 143.134C157.877 143.294 157.663 143.466 157.451 143.641C155.699 141.701 153.778 139.902 151.699 138.261C151.845 138.022 151.989 137.778 152.119 137.522C154.618 132.592 157.882 127.207 153.302 124.967C142.707 119.785 138.161 124.222 135.663 129.151C135.534 129.406 135.423 129.665 135.314 129.925C132.765 129.213 130.182 128.719 127.585 128.447C127.601 128.173 127.614 127.898 127.607 127.621C127.499 122.196 129.105 119.259 123.901 119.159C112.553 118.938 108.724 123.872 108.832 129.297C108.837 129.581 108.861 129.858 108.89 130.133C106.289 130.876 103.734 131.826 101.249 132.974C101.131 132.732 101.009 132.492 100.868 132.257C98.1813 127.791 92.4079 126.694 87.9727 129.807C83.5375 132.921 82.1187 139.066 84.8052 143.532C84.9425 143.762 85.0935 143.975 85.2471 144.187C83.2832 146.155 81.4427 148.293 79.7431 150.586C79.5228 150.447 79.3 150.312 79.0646 150.192C74.5198 147.88 68.8119 150.003 66.3129 154.934C63.8152 159.863 65.4732 165.734 70.0179 168.045C70.2533 168.165 70.4938 168.266 70.7343 168.362C69.8895 171.09 69.2538 173.838 68.827 176.589C68.5664 176.59 68.3045 176.594 68.0402 176.618C62.8559 177.081 58.7405 181.854 58.8488 187.28C58.957 192.705 63.2487 196.727 68.4329 196.265C68.7036 196.241 68.9705 196.198 69.2349 196.151C69.7762 198.84 70.5177 201.466 71.4544 204.008C71.2164 204.148 70.9785 204.292 70.7468 204.454C66.3117 207.567 64.8929 213.712 67.5794 218.18C70.2659 222.646 79.159 224.723 83.5954 221.608C83.822 221.448 80.9164 220.298 81.1279 220.124C82.8803 222.064 84.8015 223.862 86.8799 225.503C86.7339 225.743 86.5904 225.986 86.4607 226.242C83.963 231.172 85.621 237.043 90.1657 239.354C94.7104 241.666 100.418 239.543 102.917 234.613C103.047 234.358 103.158 234.098 103.266 233.838C105.815 234.551 108.399 235.044 110.996 235.316C110.98 235.59 110.967 235.865 110.973 236.143C111.081 241.568 115.373 245.59 120.557 245.127C125.742 244.664 129.857 239.89 129.749 234.465C129.744 234.181 129.72 233.904 129.691 233.629C132.292 232.886 134.846 231.936 137.331 230.788C137.45 231.03 137.572 231.27 137.713 231.505C140.399 235.971 146.173 237.068 150.608 233.955C155.043 230.841 156.462 224.697 153.775 220.23C153.638 220.001 153.487 219.787 153.333 219.576C155.297 217.609 157.138 215.471 158.837 213.178C159.055 213.316 159.278 213.451 159.514 213.571ZM102.864 214.291C86.365 205.899 80.3436 184.585 89.4142 166.685C98.4847 148.786 119.213 141.079 135.712 149.472C152.212 157.865 158.233 179.179 149.163 197.078C140.092 214.978 119.364 222.684 102.864 214.291Z" fill="url(#paint7_linear_65_184)"/>
<path d="M170.539 187.145C175.724 186.682 179.839 181.908 179.731 176.483C179.622 171.058 175.331 167.035 170.147 167.499C169.876 167.523 169.609 167.566 169.345 167.612C168.803 164.923 168.061 162.297 167.125 159.756C167.363 159.616 167.601 159.472 167.833 159.308C172.268 156.195 177.756 148.671 174.627 144.504C168.687 136.595 162.541 140.018 158.105 143.131C157.878 143.291 157.664 143.463 157.453 143.638C155.7 141.698 153.779 139.9 151.701 138.259C151.847 138.019 151.99 137.776 152.12 137.52C153.48 134.837 153.599 131.879 152.702 129.364C148.418 136.919 144.19 144.506 140.039 152.133C153.201 161.796 157.392 180.841 149.165 197.077C142.193 210.835 128.334 218.561 114.802 217.592C114.198 219.161 113.606 220.738 112.959 222.291C111.205 226.506 109.212 230.634 107.217 234.758C108.472 234.995 109.732 235.181 110.996 235.314C110.98 235.588 110.967 235.863 110.972 236.14C111.08 241.565 114.369 246.175 123.764 245.676C128.962 245.399 129.855 239.889 129.746 234.464C129.741 234.18 129.718 233.902 129.69 233.628C132.291 232.885 134.845 231.935 137.33 230.787C137.449 231.029 137.571 231.269 137.712 231.503C140.398 235.971 149.717 237.868 154.152 234.755C158.588 231.641 156.46 224.696 153.774 220.228C153.637 220 153.486 219.786 153.332 219.574C155.296 217.606 157.137 215.468 158.836 213.176C159.057 213.315 159.28 213.45 159.515 213.569C164.06 215.881 169.768 213.758 172.267 208.827C174.764 203.898 173.106 198.027 168.562 195.716C168.326 195.596 168.086 195.495 167.845 195.399C168.69 192.671 169.326 189.921 169.753 187.172C170.012 187.174 170.274 187.169 170.539 187.145Z" fill="url(#paint8_linear_65_184)"/>
<path d="M164.4 214.129C168.945 216.441 174.653 214.318 177.152 209.387C179.65 204.457 177.992 198.587 173.447 196.276C173.211 196.156 172.971 196.055 172.73 195.959C173.575 193.231 174.211 190.483 174.638 187.732C174.898 187.73 175.159 187.727 175.426 187.703C180.61 187.24 184.726 182.467 184.617 177.041C184.509 171.616 180.217 167.592 175.033 168.056C174.762 168.08 174.495 168.123 174.231 168.171C173.69 165.482 172.947 162.856 172.012 160.314C172.25 160.174 172.488 160.03 172.719 159.868C177.154 156.755 178.573 150.61 175.887 146.142C173.2 141.676 167.427 140.578 162.991 143.691C162.765 143.851 162.55 144.023 162.339 144.198C160.587 142.258 158.666 140.46 156.587 138.819C156.733 138.579 156.877 138.336 157.007 138.08C159.504 133.149 157.846 127.279 153.302 124.968C148.757 122.656 143.048 124.779 140.55 129.71C140.42 129.966 140.309 130.224 140.201 130.484C137.652 129.771 135.069 129.278 132.471 129.006C132.488 128.732 132.5 128.457 132.495 128.178C132.387 122.753 128.095 118.731 122.911 119.194C117.727 119.657 113.611 124.431 113.72 129.856C113.726 130.14 113.749 130.417 113.778 130.692C111.177 131.435 108.624 132.385 106.137 133.533C106.019 133.29 105.897 133.051 105.756 132.816C103.069 128.35 97.2958 127.252 92.8607 130.365C88.4255 133.48 87.0067 139.624 89.6932 144.091C89.8304 144.319 89.9815 144.534 90.1351 144.746C88.1712 146.713 86.3306 148.851 84.6311 151.143C84.4108 151.006 84.1879 150.869 83.9525 150.751C79.4078 148.439 73.6999 150.562 71.2009 155.492C68.7032 160.422 70.3612 166.293 74.9059 168.604C75.1413 168.724 75.3818 168.824 75.6222 168.92C74.7775 171.649 74.1405 174.397 73.715 177.148C73.4544 177.148 73.1925 177.153 72.9269 177.177C67.7426 177.64 63.6272 182.414 63.7355 187.839C63.8438 193.264 68.1354 197.286 73.3197 196.823C73.5903 196.799 73.8572 196.756 74.1216 196.71C74.6629 199.398 75.4044 202.025 76.3411 204.567C76.1019 204.707 75.8652 204.85 75.6336 205.013C71.1984 208.126 69.7796 214.271 72.4661 218.739C75.1527 223.206 80.9261 224.303 85.3613 221.19C85.5891 221.029 85.8031 220.858 86.0134 220.683C87.7658 222.622 89.6869 224.421 91.7654 226.062C91.6194 226.302 91.4758 226.545 91.3462 226.801C88.8485 231.73 90.5065 237.602 95.0512 239.913C99.5959 242.225 105.305 240.102 107.803 235.171C107.932 234.917 108.043 234.657 108.152 234.397C110.701 235.11 113.284 235.603 115.881 235.875C115.865 236.149 115.852 236.424 115.857 236.703C115.966 242.128 120.257 246.15 125.442 245.687C130.626 245.224 134.741 240.451 134.633 235.025C134.627 234.741 134.604 234.464 134.575 234.189C137.176 233.446 139.73 232.496 142.215 231.348C142.334 231.59 142.456 231.83 142.597 232.065C145.283 236.532 151.057 237.628 155.492 234.515C159.927 231.401 161.346 225.257 158.66 220.79C158.522 220.561 158.371 220.347 158.218 220.136C160.182 218.169 162.022 216.031 163.722 213.738C163.942 213.874 164.165 214.009 164.4 214.129ZM107.752 214.848C91.253 206.455 85.2316 185.141 94.3021 167.241C103.373 149.342 124.101 141.635 140.6 150.029C157.1 158.422 163.121 179.736 154.051 197.636C144.979 215.535 124.251 223.242 107.752 214.848Z" fill="url(#paint9_linear_65_184)"/>
<path d="M341.556 136.125L235.628 135.006C230.618 134.953 226.542 139.206 226.542 144.505V312.044C226.542 317.343 230.618 321.358 235.628 321.012L341.556 313.702C346.102 313.387 349.774 309.064 349.774 304.044V145.302C349.774 140.282 346.102 136.173 341.556 136.125Z" fill="url(#paint10_linear_65_184)"/>
<path opacity="0.74" d="M229.45 309.497V146.881C229.45 141.977 233.219 138.036 237.851 138.078L339.524 139.019C343.745 139.058 347.156 142.866 347.156 147.524V301.974C347.156 306.632 343.745 310.639 339.524 310.925L237.851 317.81C233.219 318.122 229.45 314.403 229.45 309.497Z" fill="white"/>
<path d="M341.556 136.125L235.628 135.006C230.618 134.953 226.542 139.206 226.542 144.505V151.388L349.774 151.824V145.303C349.774 140.282 346.102 136.173 341.556 136.125Z" fill="url(#paint11_linear_65_184)"/>
<path d="M341.591 143.828C341.591 145.535 340.295 146.911 338.694 146.903C337.091 146.894 335.791 145.499 335.791 143.787C335.791 142.076 337.091 140.698 338.694 140.712C340.295 140.725 341.591 142.12 341.591 143.828Z" fill="white"/>
<path d="M340.182 272.903L237.134 278.127V180.286L340.182 179.378V272.903Z" fill="url(#paint12_linear_65_184)"/>
<path d="M340.182 283.872L237.134 289.603V284.723L340.182 279.208V283.872Z" fill="white"/>
<path d="M340.182 295.315L237.134 301.574V296.694L340.182 290.651V295.315Z" fill="white"/>
<path d="M316.278 168.502L237.134 168.811V173.691L316.278 173.216V168.502Z" fill="white"/>
<path d="M331.402 168.442V173.126L340.182 173.073V168.408L331.402 168.442Z" fill="white"/>
<g opacity="0.15">
<path d="M313.721 236.261C296.688 213.794 275.32 213.151 263.421 189.11C254.806 171.707 256.028 151.891 259.852 135.261L235.628 135.005C230.618 134.952 226.542 139.205 226.542 144.504V312.043C226.542 317.342 230.618 321.356 235.628 321.011L330.866 314.438C333.798 272.01 323.609 249.303 313.721 236.261Z" fill="white"/>
</g>
<path d="M254.343 189.427L243.456 189.573L243.474 184.721L254.361 184.607L254.343 189.427Z" fill="white"/>
<path d="M312.859 188.641L261.304 189.334L261.323 184.535L312.881 183.998L312.859 188.641Z" fill="white"/>
<path d="M271.919 197.329L261.272 197.527L261.291 192.73L271.938 192.564L271.919 197.329Z" fill="white"/>
<path d="M329.166 196.265L278.726 197.203L278.746 192.458L329.188 191.673L329.166 196.265Z" fill="white"/>
<path d="M271.886 205.466L261.24 205.718L261.259 200.924L271.905 200.703L271.886 205.466Z" fill="white"/>
<path d="M329.128 204.106L278.693 205.304L278.712 200.562L329.15 199.516L329.128 204.106Z" fill="white"/>
<path d="M254.25 214.11L243.366 214.425L243.384 209.577L254.268 209.294L254.25 214.11Z" fill="white"/>
<path d="M312.748 212.418L261.209 213.908L261.228 209.115L312.769 207.779L312.748 212.418Z" fill="white"/>
<path d="M271.821 221.733L261.178 222.096L261.197 217.303L271.84 216.973L271.821 221.733Z" fill="white"/>
<path d="M329.05 219.783L278.626 221.501L278.645 216.761L329.072 215.196L329.05 219.783Z" fill="white"/>
<path d="M271.788 229.865L261.146 230.282L261.165 225.491L271.807 225.105L271.788 229.865Z" fill="white"/>
<path d="M329.012 227.62L278.592 229.598L278.612 224.859L329.034 223.032L329.012 227.62Z" fill="white"/>
<path d="M271.755 237.993L261.114 238.466L261.132 233.675L271.774 233.235L271.755 237.993Z" fill="white"/>
<path d="M328.973 235.454L278.56 237.691L278.578 232.953L328.996 230.868L328.973 235.454Z" fill="white"/>
<path d="M289.095 245.259L278.69 245.775L278.709 241.039L289.116 240.555L289.095 245.259Z" fill="white"/>
<path d="M336.797 242.896L295.75 244.93L295.77 240.244L336.821 238.335L336.797 242.896Z" fill="white"/>
<path d="M254.096 255.208L243.218 255.802L243.235 250.959L254.114 250.398L254.096 255.208Z" fill="white"/>
<path d="M312.564 252.009L261.052 254.827L261.069 250.039L312.586 247.376L312.564 252.009Z" fill="white"/>
<path d="M271.657 262.367L261.021 263.004L261.038 258.217L271.676 257.613L271.657 262.367Z" fill="white"/>
<path d="M328.859 258.945L278.459 261.961L278.479 257.226L328.881 254.361L328.859 258.945Z" fill="white"/>
<path d="M271.624 270.488L260.988 271.18L261.006 266.393L271.643 265.734L271.624 270.488Z" fill="white"/>
<path d="M328.82 266.77L278.426 270.046L278.445 265.313L328.842 262.189L328.82 266.77Z" fill="white"/>
<path d="M37.9294 338.399L36.9009 336.644C35.2605 333.845 36.279 330.288 39.1745 328.706L152.724 266.692L158.998 278.466L46.1061 340.576C43.2244 342.162 39.5648 341.189 37.9294 338.399Z" fill="url(#paint13_linear_65_184)"/>
<path d="M238.373 301.372C205.982 319.816 164.727 307.793 146.359 273.502C127.551 238.385 140.312 194.373 174.7 176.273C208.47 158.498 249.319 173.095 266.131 207.849C282.561 241.811 270.205 283.247 238.373 301.372ZM233.469 291.737C260.364 276.513 270.769 241.55 256.821 212.951C242.602 183.793 208.267 171.709 180.002 186.686C151.304 201.893 140.614 238.673 156.239 268.086C171.557 296.918 206.177 307.185 233.469 291.737Z" fill="url(#paint14_linear_65_184)"/>
<path opacity="0.3" d="M152.723 266.693L138.245 274.6C138.201 279.755 136.723 283.01 135.004 285.161C128.534 293.255 116.66 288.34 103.687 298.943C97.1768 304.263 99.0627 306.403 92.7731 310.477C82.3744 317.212 75.9464 312.188 66.7663 318.259C57.4805 324.4 58.2849 333.358 52.4813 334.229C49.9987 334.603 46.47 333.466 41.5488 327.411L39.1745 328.707C36.279 330.289 35.2605 333.846 36.9009 336.645L37.9294 338.401C39.5648 341.191 43.2257 342.163 46.1049 340.579L158.996 278.469L152.723 266.693Z" fill="#D8DEE8" fill-opacity="0.1"/>
<path d="M241.368 304.031C208.977 322.475 167.722 310.452 149.355 276.161C130.546 241.044 143.307 197.031 177.695 178.931C211.465 161.157 252.314 175.754 269.126 210.507C285.555 244.47 273.199 285.906 241.368 304.031ZM236.463 294.397C263.358 279.174 273.763 244.21 259.815 215.611C245.594 186.453 211.26 174.369 182.995 189.346C154.298 204.553 143.608 241.333 159.233 270.746C174.551 299.578 209.171 309.846 236.463 294.397Z" fill="url(#paint15_linear_65_184)"/>
<path d="M239.637 300.632C209.045 318.015 170.138 306.605 152.854 274.243C135.179 241.148 147.207 199.702 179.575 182.623C211.393 165.836 249.94 179.536 265.839 212.31C281.397 244.378 269.729 283.532 239.637 300.632ZM236.463 294.397C263.358 279.174 273.763 244.21 259.815 215.611C245.594 186.453 211.26 174.369 182.996 189.346C154.298 204.553 143.608 241.333 159.233 270.746C174.551 299.578 209.171 309.846 236.463 294.397Z" fill="url(#paint16_linear_65_184)"/>
<defs>
<linearGradient id="paint0_linear_65_184" x1="227.761" y1="27.1006" x2="8.94259" y2="463.904" gradientUnits="userSpaceOnUse">
<stop stop-color="#AB316D"/>
<stop offset="1" stop-color="#792D3D"/>
</linearGradient>
<linearGradient id="paint1_linear_65_184" x1="108.957" y1="125.809" x2="421.482" y2="544.841" gradientUnits="userSpaceOnUse">
<stop stop-color="#FFC444"/>
<stop offset="0.9964" stop-color="#F36F56"/>
</linearGradient>
<linearGradient id="paint2_linear_65_184" x1="133.41" y1="13.4488" x2="171.451" y2="165.324" gradientUnits="userSpaceOnUse">
<stop stop-color="#AB316D"/>
<stop offset="1" stop-color="#792D3D"/>
</linearGradient>
<linearGradient id="paint3_linear_65_184" x1="221.775" y1="148.918" x2="-165.282" y2="300.388" gradientUnits="userSpaceOnUse">
<stop stop-color="#FFC444"/>
<stop offset="0.9964" stop-color="#F36F56"/>
</linearGradient>
<linearGradient id="paint4_linear_65_184" x1="431.625" y1="302.285" x2="229.212" y2="107.616" gradientUnits="userSpaceOnUse">
<stop stop-color="#AA80F9"/>
<stop offset="0.9964" stop-color="#6165D7"/>
</linearGradient>
<linearGradient id="paint5_linear_65_184" x1="435.872" y1="297.869" x2="233.459" y2="103.2" gradientUnits="userSpaceOnUse">
<stop stop-color="#AA80F9"/>
<stop offset="0.9964" stop-color="#6165D7"/>
</linearGradient>
<linearGradient id="paint6_linear_65_184" x1="246.721" y1="122.209" x2="54.6899" y2="-65.9437" gradientUnits="userSpaceOnUse">
<stop stop-color="#AA80F9"/>
<stop offset="0.9964" stop-color="#6165D7"/>
</linearGradient>
<linearGradient id="paint7_linear_65_184" x1="342.18" y1="395.288" x2="139.767" y2="200.62" gradientUnits="userSpaceOnUse">
<stop stop-color="#AA80F9"/>
<stop offset="0.9964" stop-color="#6165D7"/>
</linearGradient>
<linearGradient id="paint8_linear_65_184" x1="347.438" y1="389.822" x2="145.025" y2="195.153" gradientUnits="userSpaceOnUse">
<stop stop-color="#AA80F9"/>
<stop offset="0.9964" stop-color="#6165D7"/>
</linearGradient>
<linearGradient id="paint9_linear_65_184" x1="156.529" y1="214.259" x2="-35.5021" y2="26.1065" gradientUnits="userSpaceOnUse">
<stop stop-color="#AA80F9"/>
<stop offset="0.9964" stop-color="#6165D7"/>
</linearGradient>
<linearGradient id="paint10_linear_65_184" x1="226.542" y1="228.019" x2="349.774" y2="228.019" gradientUnits="userSpaceOnUse">
<stop offset="0.00359712" stop-color="#E38DDD"/>
<stop offset="1" stop-color="#9571F6"/>
</linearGradient>
<linearGradient id="paint11_linear_65_184" x1="288.914" y1="141.04" x2="276.622" y2="251.921" gradientUnits="userSpaceOnUse">
<stop stop-color="#40447E"/>
<stop offset="0.9964" stop-color="#3C3B6B"/>
</linearGradient>
<linearGradient id="paint12_linear_65_184" x1="237.134" y1="228.752" x2="340.182" y2="228.752" gradientUnits="userSpaceOnUse">
<stop offset="0.00359712" stop-color="#E38DDD"/>
<stop offset="1" stop-color="#9571F6"/>
</linearGradient>
<linearGradient id="paint13_linear_65_184" x1="161.562" y1="290.932" x2="32.6411" y2="317.471" gradientUnits="userSpaceOnUse">
<stop stop-color="#444B8C"/>
<stop offset="0.9964" stop-color="#26264F"/>
</linearGradient>
<linearGradient id="paint14_linear_65_184" x1="272.052" y1="225.602" x2="139.03" y2="252.985" gradientUnits="userSpaceOnUse">
<stop stop-color="#444B8C"/>
<stop offset="0.9964" stop-color="#26264F"/>
</linearGradient>
<linearGradient id="paint15_linear_65_184" x1="238.923" y1="310.526" x2="197.138" y2="216.586" gradientUnits="userSpaceOnUse">
<stop stop-color="#444B8C"/>
<stop offset="0.9964" stop-color="#26264F"/>
</linearGradient>
<linearGradient id="paint16_linear_65_184" x1="157.618" y1="324.383" x2="230.666" y2="207.167" gradientUnits="userSpaceOnUse">
<stop stop-color="#444B8C"/>
<stop offset="0.9964" stop-color="#26264F"/>
</linearGradient>
</defs>
</svg>
