<svg width="20" height="15" viewBox="0 0 20 15" fill="none" xmlns="http://www.w3.org/2000/svg">
<path d="M19.8212 1.35772L18.5712 2.55018L13.3066 7.59017L18.5712 12.5475L19.7926 13.6949V13.695C19.9307 13.4012 20.0015 13.0776 19.9998 12.75V2.25C19.9999 1.94263 19.9392 1.63877 19.8212 1.35754L19.8212 1.35772Z" fill="#1900AF"/>
<path d="M12.25 8.60999L11.4499 9.37507C11.0545 9.7566 10.5371 9.96838 10 9.96838C9.46285 9.96838 8.94546 9.75661 8.55007 9.37507L7.75716 8.60999L2.59264 13.5L1.24268 14.7825C1.52249 14.9275 1.83068 15.0018 2.14272 15H17.8571C18.182 15.0005 18.5025 14.9208 18.7929 14.7675L17.4429 13.5L12.25 8.60999Z" fill="#1900AF"/>
<path d="M6.70008 7.59001L1.42862 2.49002L0.207143 1.30493C0.0690689 1.59874 -0.00172326 1.92233 3.1855e-05 2.24997V12.75C-0.000446475 13.0911 0.0754485 13.4276 0.221494 13.7325L1.4286 12.5849L6.70008 7.59001Z" fill="#1900AF"/>
<path d="M9.51421 8.26496C9.64559 8.39504 9.81922 8.46753 9.99984 8.46753C10.1805 8.46753 10.3541 8.39504 10.4855 8.26496L18.85 0.254968H18.8499C18.5425 0.0898992 18.2024 0.00251379 17.857 2.35938e-06H2.14265C1.81548 -0.000499883 1.49261 0.0791893 1.19971 0.232536L2.51412 1.49999L9.51421 8.26496Z" fill="#1900AF"/>
</svg>
