<svg width="188" height="27" viewBox="0 0 188 27" fill="none" xmlns="http://www.w3.org/2000/svg">
<path d="M37.7 8.692C39.1813 8.692 40.4427 9.25667 41.484 10.386C42.54 11.5153 43.068 12.8867 43.068 14.5C43.068 16.1427 42.54 17.5213 41.484 18.636C40.4573 19.7507 39.196 20.308 37.7 20.308C36.16 20.308 34.972 19.7727 34.136 18.702V24.4H31.298V9H34.136V10.298C34.972 9.22733 36.16 8.692 37.7 8.692ZM34.994 16.744C35.566 17.316 36.292 17.602 37.172 17.602C38.052 17.602 38.778 17.316 39.35 16.744C39.9367 16.1573 40.23 15.4093 40.23 14.5C40.23 13.5907 39.9367 12.85 39.35 12.278C38.778 11.6913 38.052 11.398 37.172 11.398C36.292 11.398 35.566 11.6913 34.994 12.278C34.422 12.85 34.136 13.5907 34.136 14.5C34.136 15.4093 34.422 16.1573 34.994 16.744ZM53.4295 10.298V9H56.2675V20H53.4295V18.702C52.5788 19.7727 51.3835 20.308 49.8435 20.308C48.3768 20.308 47.1155 19.7507 46.0595 18.636C45.0182 17.5067 44.4975 16.128 44.4975 14.5C44.4975 12.8867 45.0182 11.5153 46.0595 10.386C47.1155 9.25667 48.3768 8.692 49.8435 8.692C51.3835 8.692 52.5788 9.22733 53.4295 10.298ZM48.1935 16.744C48.7655 17.316 49.4915 17.602 50.3715 17.602C51.2515 17.602 51.9775 17.316 52.5495 16.744C53.1362 16.1573 53.4295 15.4093 53.4295 14.5C53.4295 13.5907 53.1362 12.85 52.5495 12.278C51.9775 11.6913 51.2515 11.398 50.3715 11.398C49.4915 11.398 48.7655 11.6913 48.1935 12.278C47.6215 12.85 47.3355 13.5907 47.3355 14.5C47.3355 15.4093 47.6215 16.1573 48.1935 16.744ZM61.679 9V10.892C61.9283 10.2027 62.3536 9.682 62.955 9.33C63.5563 8.96333 64.2456 8.78 65.023 8.78V11.948C64.1576 11.8307 63.3803 12.0067 62.691 12.476C62.0163 12.9307 61.679 13.686 61.679 14.742V20H58.841V9H61.679ZM68.957 12.124C68.957 12.5933 69.6243 12.9967 70.959 13.334C71.4283 13.4367 71.8537 13.5613 72.235 13.708C72.6163 13.84 72.9977 14.038 73.379 14.302C73.775 14.5513 74.083 14.8887 74.303 15.314C74.523 15.7393 74.633 16.2307 74.633 16.788C74.633 17.9173 74.2077 18.79 73.357 19.406C72.5063 20.0073 71.4577 20.308 70.211 20.308C67.9523 20.308 66.4123 19.4353 65.591 17.69L68.055 16.304C68.3923 17.2573 69.111 17.734 70.211 17.734C71.223 17.734 71.729 17.4187 71.729 16.788C71.729 16.3187 71.0617 15.9153 69.727 15.578C69.2283 15.446 68.803 15.314 68.451 15.182C68.099 15.05 67.7177 14.8593 67.307 14.61C66.8963 14.346 66.581 14.016 66.361 13.62C66.1557 13.2093 66.053 12.7327 66.053 12.19C66.053 11.1047 66.449 10.254 67.241 9.638C68.0477 9.00733 69.045 8.692 70.233 8.692C71.1277 8.692 71.9417 8.89733 72.675 9.308C73.4083 9.704 73.9877 10.276 74.413 11.024L71.993 12.344C71.641 11.596 71.0543 11.222 70.233 11.222C69.8663 11.222 69.5583 11.31 69.309 11.486C69.0743 11.6473 68.957 11.86 68.957 12.124ZM86.9998 15.666H78.7058C79.0724 17.0447 80.1064 17.734 81.8078 17.734C82.8931 17.734 83.7144 17.3673 84.2718 16.634L86.5598 17.954C85.4744 19.5233 83.8758 20.308 81.7638 20.308C79.9451 20.308 78.4858 19.758 77.3858 18.658C76.2858 17.558 75.7358 16.172 75.7358 14.5C75.7358 12.8573 76.2784 11.4787 77.3638 10.364C78.4344 9.24933 79.8278 8.692 81.5438 8.692C83.1718 8.692 84.4991 9.24933 85.5258 10.364C86.5818 11.4787 87.1098 12.8573 87.1098 14.5C87.1098 14.808 87.0731 15.1967 86.9998 15.666ZM78.6618 13.466H84.2718C84.1104 12.7473 83.7804 12.1973 83.2818 11.816C82.7978 11.4347 82.2184 11.244 81.5438 11.244C80.7811 11.244 80.1504 11.442 79.6518 11.838C79.1531 12.2193 78.8231 12.762 78.6618 13.466ZM91.929 9V10.892C92.1783 10.2027 92.6036 9.682 93.205 9.33C93.8063 8.96333 94.4956 8.78 95.273 8.78V11.948C94.4076 11.8307 93.6303 12.0067 92.941 12.476C92.2663 12.9307 91.929 13.686 91.929 14.742V20H89.091V9H91.929ZM104.885 14.72H96.6351V11.992H104.885V14.72ZM115.971 10.298V9H118.809V20H115.971V18.702C115.12 19.7727 113.925 20.308 112.385 20.308C110.918 20.308 109.657 19.7507 108.601 18.636C107.559 17.5067 107.038 16.128 107.038 14.5C107.038 12.8867 107.559 11.5153 108.601 10.386C109.657 9.25667 110.918 8.692 112.385 8.692C113.925 8.692 115.12 9.22733 115.971 10.298ZM110.735 16.744C111.307 17.316 112.033 17.602 112.913 17.602C113.793 17.602 114.519 17.316 115.091 16.744C115.677 16.1573 115.971 15.4093 115.971 14.5C115.971 13.5907 115.677 12.85 115.091 12.278C114.519 11.6913 113.793 11.398 112.913 11.398C112.033 11.398 111.307 11.6913 110.735 12.278C110.163 12.85 109.877 13.5907 109.877 14.5C109.877 15.4093 110.163 16.1573 110.735 16.744ZM127.784 8.692C129.265 8.692 130.527 9.25667 131.568 10.386C132.624 11.5153 133.152 12.8867 133.152 14.5C133.152 16.1427 132.624 17.5213 131.568 18.636C130.541 19.7507 129.28 20.308 127.784 20.308C126.244 20.308 125.056 19.7727 124.22 18.702V24.4H121.382V9H124.22V10.298C125.056 9.22733 126.244 8.692 127.784 8.692ZM125.078 16.744C125.65 17.316 126.376 17.602 127.256 17.602C128.136 17.602 128.862 17.316 129.434 16.744C130.021 16.1573 130.314 15.4093 130.314 14.5C130.314 13.5907 130.021 12.85 129.434 12.278C128.862 11.6913 128.136 11.398 127.256 11.398C126.376 11.398 125.65 11.6913 125.078 12.278C124.506 12.85 124.22 13.5907 124.22 14.5C124.22 15.4093 124.506 16.1573 125.078 16.744ZM136.561 7.68C136.092 7.68 135.681 7.51133 135.329 7.174C134.992 6.822 134.823 6.41133 134.823 5.942C134.823 5.47267 134.992 5.062 135.329 4.71C135.681 4.358 136.092 4.182 136.561 4.182C137.045 4.182 137.456 4.358 137.793 4.71C138.145 5.062 138.321 5.47267 138.321 5.942C138.321 6.41133 138.145 6.822 137.793 7.174C137.456 7.51133 137.045 7.68 136.561 7.68ZM137.991 20H135.153V9H137.991V20ZM144.109 18.416C144.109 18.9293 143.926 19.3693 143.559 19.736C143.192 20.1027 142.752 20.286 142.239 20.286C141.726 20.286 141.286 20.1027 140.919 19.736C140.552 19.3693 140.369 18.9293 140.369 18.416C140.369 17.9027 140.552 17.4627 140.919 17.096C141.286 16.7293 141.726 16.546 142.239 16.546C142.752 16.546 143.192 16.7293 143.559 17.096C143.926 17.4627 144.109 17.9027 144.109 18.416ZM150.831 20.308C149.174 20.308 147.788 19.7507 146.673 18.636C145.573 17.5213 145.023 16.1427 145.023 14.5C145.023 12.8573 145.573 11.4787 146.673 10.364C147.788 9.24933 149.174 8.692 150.831 8.692C151.902 8.692 152.877 8.94867 153.757 9.462C154.637 9.97533 155.304 10.6647 155.759 11.53L153.317 12.96C153.097 12.5053 152.76 12.146 152.305 11.882C151.865 11.618 151.366 11.486 150.809 11.486C149.958 11.486 149.254 11.772 148.697 12.344C148.14 12.9013 147.861 13.62 147.861 14.5C147.861 15.3507 148.14 16.0693 148.697 16.656C149.254 17.2133 149.958 17.492 150.809 17.492C151.381 17.492 151.887 17.3673 152.327 17.118C152.782 16.854 153.119 16.4947 153.339 16.04L155.803 17.448C155.319 18.328 154.63 19.0247 153.735 19.538C152.855 20.0513 151.887 20.308 150.831 20.308ZM166.504 18.636C165.389 19.7507 164.011 20.308 162.368 20.308C160.725 20.308 159.347 19.7507 158.232 18.636C157.117 17.5213 156.56 16.1427 156.56 14.5C156.56 12.872 157.117 11.5007 158.232 10.386C159.361 9.25667 160.74 8.692 162.368 8.692C163.996 8.692 165.375 9.25667 166.504 10.386C167.633 11.5153 168.198 12.8867 168.198 14.5C168.198 16.128 167.633 17.5067 166.504 18.636ZM160.234 16.678C160.806 17.25 161.517 17.536 162.368 17.536C163.219 17.536 163.93 17.25 164.502 16.678C165.074 16.106 165.36 15.38 165.36 14.5C165.36 13.62 165.074 12.894 164.502 12.322C163.93 11.75 163.219 11.464 162.368 11.464C161.517 11.464 160.806 11.75 160.234 12.322C159.677 12.9087 159.398 13.6347 159.398 14.5C159.398 15.3653 159.677 16.0913 160.234 16.678ZM182.36 8.692C183.622 8.692 184.626 9.10267 185.374 9.924C186.137 10.7453 186.518 11.8453 186.518 13.224V20H183.68V13.422C183.68 12.762 183.519 12.2487 183.196 11.882C182.874 11.5153 182.419 11.332 181.832 11.332C181.187 11.332 180.681 11.5447 180.314 11.97C179.962 12.3953 179.786 13.0113 179.786 13.818V20H176.948V13.422C176.948 12.762 176.787 12.2487 176.464 11.882C176.142 11.5153 175.687 11.332 175.1 11.332C174.47 11.332 173.964 11.552 173.582 11.992C173.216 12.4173 173.032 13.026 173.032 13.818V20H170.194V9H173.032V10.166C173.692 9.18333 174.712 8.692 176.09 8.692C177.454 8.692 178.452 9.22 179.082 10.276C179.801 9.22 180.894 8.692 182.36 8.692Z" fill="#14008D"/>
<path d="M0.690098 4.00003C0.506866 3.99944 0.331004 4.06967 0.201345 4.19539C0.0718241 4.32097 -0.000760068 4.49162 6.00297e-06 4.66926V8.41871H22V4.66926C22.0008 4.4925 21.9289 4.32259 21.8005 4.19714C21.672 4.07157 21.4976 4.00075 21.3151 4L0.690098 4.00003ZM3.30998 5.3345C3.54922 5.3345 3.77882 5.42675 3.94806 5.59071C4.11717 5.75482 4.21232 5.97739 4.21232 6.20936C4.21232 6.44132 4.11717 6.66392 3.94806 6.82801C3.77879 6.99212 3.54923 7.08422 3.30998 7.08422C3.07058 7.08422 2.84115 6.99212 2.6719 6.82801C2.50264 6.6639 2.40764 6.44132 2.40764 6.20936C2.40764 5.97739 2.50264 5.7548 2.6719 5.59071C2.84117 5.42675 3.07057 5.3345 3.30998 5.3345ZM5.8881 5.3345C6.12735 5.3345 6.35694 5.42675 6.52618 5.59071C6.6953 5.75482 6.79044 5.97739 6.79044 6.20936C6.79044 6.44132 6.6953 6.66392 6.52618 6.82801C6.35692 6.99212 6.12735 7.08422 5.8881 7.08422C5.6487 7.08422 5.41927 6.99212 5.25003 6.82801C5.08076 6.6639 4.98577 6.44132 4.98577 6.20936C4.98577 5.97739 5.08076 5.7548 5.25003 5.59071C5.41929 5.42675 5.6487 5.3345 5.8881 5.3345ZM8.46623 5.3345C8.70547 5.3345 8.93506 5.42675 9.1043 5.59071C9.27342 5.75482 9.36856 5.97739 9.36856 6.20936C9.36856 6.44132 9.27342 6.66392 9.1043 6.82801C8.93504 6.99212 8.70548 7.08422 8.46623 7.08422C8.22683 7.08422 7.99739 6.99212 7.82815 6.82801C7.65888 6.6639 7.56389 6.44132 7.56389 6.20936C7.56389 5.97739 7.65888 5.7548 7.82815 5.59071C7.99741 5.42675 8.22682 5.3345 8.46623 5.3345ZM0.000163059 9.75173V21.3309C-0.00121807 21.7009 0.308619 22.0014 0.690255 22H3.72095C3.80765 21.703 3.91201 21.3541 3.93303 21.2267C3.95973 21.0608 3.97876 20.893 3.97876 20.6761C3.97876 20.0402 3.86075 19.7227 3.74105 19.5252C3.62151 19.3278 3.4794 19.2236 3.25902 19.0371C3.03865 18.8505 2.69366 18.4666 2.68568 17.9695C2.67771 17.4725 2.88318 17.0163 3.27909 16.3513C3.675 15.6864 3.97747 15.2886 4.42588 15.0469C4.87413 14.8053 5.39239 14.9017 5.66919 14.9935C5.94619 15.0853 6.10841 15.1532 6.34455 15.1549C6.58073 15.1569 6.92323 15.0941 7.49134 14.7761C8.05929 14.4582 8.28259 14.2033 8.39904 14.0041C8.51551 13.8048 8.53608 13.638 8.5924 13.3597C8.64872 13.0813 8.82243 12.5958 9.26241 12.3403C9.70237 12.0847 10.2107 12.0304 11.0027 12.0304C11.7947 12.0304 12.3043 12.0847 12.7443 12.3403C13.1842 12.5959 13.3526 13.0813 13.4089 13.3597C13.4652 13.6382 13.4844 13.805 13.6009 14.0041C13.7174 14.2033 13.9419 14.4582 14.51 14.7761C15.0779 15.0941 15.4205 15.1567 15.6567 15.1549C15.8928 15.153 16.0552 15.0853 16.332 14.9935C16.609 14.9017 17.1271 14.8051 17.5753 15.0469C18.0236 15.2886 18.326 15.6864 18.7221 16.3513C19.118 17.0163 19.3237 17.4725 19.3155 17.9695C19.3075 18.4666 18.9626 18.8505 18.7422 19.0371C18.5218 19.2236 18.3797 19.3278 18.2602 19.5252C18.1406 19.7226 18.0266 20.0402 18.0266 20.6761C18.0266 20.893 18.0401 21.0609 18.0668 21.2267C18.0918 21.3776 18.1517 21.6831 18.2011 22H21.3149C21.6946 21.9987 22.0012 21.699 21.9998 21.3309L22 9.75173H0.000163059ZM11.0029 13.3644C10.3076 13.3644 9.9979 13.464 9.96765 13.4817C9.93726 13.4994 9.98391 13.4086 9.94217 13.6145C9.90043 13.8205 9.84718 14.2281 9.59305 14.6626C9.33893 15.0971 8.89652 15.5288 8.17645 15.9319C7.45642 16.335 6.84934 16.4928 6.33415 16.4891C5.819 16.4851 5.42704 16.3253 5.22232 16.2573C5.01761 16.1895 5.12165 16.1912 5.09065 16.2078C5.05981 16.2244 4.81934 16.4363 4.47159 17.0201C4.12385 17.604 4.06015 17.91 4.06078 17.9446C4.06139 17.9789 4.00001 17.8952 4.16283 18.0331C4.32566 18.171 4.66204 18.4201 4.92293 18.8507C5.14714 19.2209 5.50224 20.3931 5.08667 21.9999H7.36937C7.36799 21.5801 7.36538 21.06 7.36538 21.017C7.36538 19.0786 9.00096 17.4929 11.0002 17.4929H11.0016C13.0009 17.4929 14.6364 19.0786 14.6364 21.017C14.6364 21.06 14.6338 21.5802 14.6324 21.9999H16.8453C16.5824 20.4748 16.8688 19.1887 17.0777 18.8507C17.3385 18.4201 17.6761 18.171 17.839 18.0331C18.0018 17.8952 17.9458 17.9789 17.9464 17.9446C17.947 17.9102 17.8778 17.6041 17.53 17.0201C17.1825 16.4363 16.942 16.2244 16.911 16.2078C16.8801 16.1911 16.9828 16.1893 16.7781 16.2573C16.5734 16.3253 16.1868 16.4853 15.6716 16.4891C15.1565 16.4931 14.5454 16.335 13.8254 15.9319C13.1053 15.5288 12.6629 15.0971 12.4088 14.6626C12.1546 14.2282 12.1 13.8205 12.0583 13.6145C12.0165 13.4086 12.0644 13.4994 12.0342 13.4817C12.0038 13.464 11.6982 13.3644 11.0029 13.3644ZM11.0003 18.8257C9.74421 18.8257 8.74046 19.7989 8.74046 21.0167C8.74046 21.0435 8.74307 21.5736 8.74445 21.9996H13.256C13.2574 21.5736 13.26 21.0434 13.26 21.0167C13.26 19.7989 12.2563 18.8257 11.0003 18.8257Z" fill="#14008D"/>
</svg>
