<svg width="138" height="27" viewBox="0 0 138 27" fill="none" xmlns="http://www.w3.org/2000/svg">
<path d="M37.172 5.6C38.6533 5.6 39.9 6.09867 40.912 7.096C41.924 8.09333 42.43 9.318 42.43 10.77C42.43 12.222 41.924 13.4467 40.912 14.444C39.9 15.4413 38.6533 15.94 37.172 15.94H34.466V21H31.43V5.6H37.172ZM37.172 13.102C37.8173 13.102 38.3527 12.882 38.778 12.442C39.2033 11.9873 39.416 11.43 39.416 10.77C39.416 10.0953 39.2033 9.538 38.778 9.098C38.3527 8.658 37.8173 8.438 37.172 8.438H34.466V13.102H37.172ZM51.9041 10H54.7421V21H51.9041V19.702C51.0534 20.7727 49.8581 21.308 48.3181 21.308C46.8514 21.308 45.5901 20.7507 44.5341 19.636C43.4928 18.5067 42.9721 17.128 42.9721 15.5C42.9721 13.872 43.4928 12.5007 44.5341 11.386C45.5901 10.2567 46.8514 9.692 48.3181 9.692C49.8581 9.692 51.0534 10.2273 51.9041 11.298V10ZM46.6681 17.744C47.2401 18.316 47.9661 18.602 48.8461 18.602C49.7261 18.602 50.4521 18.316 51.0241 17.744C51.6108 17.1573 51.9041 16.4093 51.9041 15.5C51.9041 14.5907 51.6108 13.85 51.0241 13.278C50.4521 12.6913 49.7261 12.398 48.8461 12.398C47.9661 12.398 47.2401 12.6913 46.6681 13.278C46.0961 13.85 45.8101 14.5907 45.8101 15.5C45.8101 16.4093 46.0961 17.1573 46.6681 17.744ZM60.1536 11.892C60.4176 11.188 60.8502 10.66 61.4516 10.308C62.0676 9.956 62.7496 9.78 63.4976 9.78V12.948C62.6322 12.8453 61.8549 13.0213 61.1656 13.476C60.4909 13.9307 60.1536 14.686 60.1536 15.742V21H57.3156V10H60.1536V11.892ZM67.4316 13.124C67.4316 13.4173 67.6223 13.6593 68.0036 13.85C68.3996 14.026 68.8763 14.1873 69.4336 14.334C69.991 14.466 70.5483 14.642 71.1056 14.862C71.663 15.0673 72.1323 15.4193 72.5136 15.918C72.9096 16.4167 73.1076 17.04 73.1076 17.788C73.1076 18.9173 72.6823 19.79 71.8316 20.406C70.9956 21.0073 69.947 21.308 68.6856 21.308C66.427 21.308 64.887 20.4353 64.0656 18.69L66.5296 17.304C66.8523 18.2573 67.571 18.734 68.6856 18.734C69.6976 18.734 70.2036 18.4187 70.2036 17.788C70.2036 17.4947 70.0056 17.26 69.6096 17.084C69.2283 16.8933 68.759 16.7247 68.2016 16.578C67.6443 16.4313 67.087 16.248 66.5296 16.028C65.9723 15.808 65.4956 15.4633 65.0996 14.994C64.7183 14.51 64.5276 13.9087 64.5276 13.19C64.5276 12.1047 64.9236 11.254 65.7156 10.638C66.5223 10.0073 67.5196 9.692 68.7076 9.692C69.6023 9.692 70.4163 9.89733 71.1496 10.308C71.883 10.704 72.4623 11.276 72.8876 12.024L70.4676 13.344C70.1156 12.596 69.529 12.222 68.7076 12.222C68.341 12.222 68.033 12.3027 67.7836 12.464C67.549 12.6253 67.4316 12.8453 67.4316 13.124ZM77.1804 16.666C77.5617 18.0447 78.5957 18.734 80.2824 18.734C81.3677 18.734 82.189 18.3673 82.7464 17.634L85.0344 18.954C83.949 20.5233 82.3504 21.308 80.2384 21.308C78.4197 21.308 76.9604 20.758 75.8604 19.658C74.7604 18.558 74.2104 17.172 74.2104 15.5C74.2104 13.8427 74.753 12.464 75.8384 11.364C76.9237 10.2493 78.317 9.692 80.0184 9.692C81.6317 9.692 82.959 10.2493 84.0004 11.364C85.0564 12.4787 85.5844 13.8573 85.5844 15.5C85.5844 15.8667 85.5477 16.2553 85.4744 16.666H77.1804ZM77.1364 14.466H82.7464C82.585 13.718 82.2477 13.1607 81.7344 12.794C81.2357 12.4273 80.6637 12.244 80.0184 12.244C79.2557 12.244 78.625 12.442 78.1264 12.838C77.6277 13.2193 77.2977 13.762 77.1364 14.466ZM90.4036 11.892C90.6676 11.188 91.1002 10.66 91.7016 10.308C92.3176 9.956 92.9996 9.78 93.7476 9.78V12.948C92.8822 12.8453 92.1049 13.0213 91.4156 13.476C90.7409 13.9307 90.4036 14.686 90.4036 15.742V21H87.5656V10H90.4036V11.892ZM95.1097 15.72V12.992H103.36V15.72H95.1097ZM114.445 10H117.283V21H114.445V19.702C113.594 20.7727 112.399 21.308 110.859 21.308C109.392 21.308 108.131 20.7507 107.075 19.636C106.034 18.5067 105.513 17.128 105.513 15.5C105.513 13.872 106.034 12.5007 107.075 11.386C108.131 10.2567 109.392 9.692 110.859 9.692C112.399 9.692 113.594 10.2273 114.445 11.298V10ZM109.209 17.744C109.781 18.316 110.507 18.602 111.387 18.602C112.267 18.602 112.993 18.316 113.565 17.744C114.152 17.1573 114.445 16.4093 114.445 15.5C114.445 14.5907 114.152 13.85 113.565 13.278C112.993 12.6913 112.267 12.398 111.387 12.398C110.507 12.398 109.781 12.6913 109.209 13.278C108.637 13.85 108.351 14.5907 108.351 15.5C108.351 16.4093 108.637 17.1573 109.209 17.744ZM126.259 9.692C127.74 9.692 129.001 10.2567 130.043 11.386C131.099 12.5007 131.627 13.872 131.627 15.5C131.627 17.128 131.099 18.5067 130.043 19.636C129.001 20.7507 127.74 21.308 126.259 21.308C124.719 21.308 123.531 20.7727 122.695 19.702V25.4H119.857V10H122.695V11.298C123.531 10.2273 124.719 9.692 126.259 9.692ZM123.553 17.744C124.125 18.316 124.851 18.602 125.731 18.602C126.611 18.602 127.337 18.316 127.909 17.744C128.495 17.1573 128.789 16.4093 128.789 15.5C128.789 14.5907 128.495 13.85 127.909 13.278C127.337 12.6913 126.611 12.398 125.731 12.398C124.851 12.398 124.125 12.6913 123.553 13.278C122.981 13.85 122.695 14.5907 122.695 15.5C122.695 16.4093 122.981 17.1573 123.553 17.744ZM135.036 8.68C134.567 8.68 134.156 8.51133 133.804 8.174C133.467 7.822 133.298 7.41133 133.298 6.942C133.298 6.47267 133.467 6.062 133.804 5.71C134.156 5.358 134.567 5.182 135.036 5.182C135.52 5.182 135.931 5.358 136.268 5.71C136.62 6.062 136.796 6.47267 136.796 6.942C136.796 7.41133 136.62 7.822 136.268 8.174C135.931 8.51133 135.52 8.68 135.036 8.68ZM133.628 21V10H136.466V21H133.628Z" fill="#14008D"/>
<path d="M0.690098 4.00003C0.506866 3.99944 0.331004 4.06967 0.201345 4.19539C0.0718241 4.32097 -0.000760068 4.49162 6.00297e-06 4.66926V8.41871H22V4.66926C22.0008 4.4925 21.9289 4.32259 21.8005 4.19714C21.672 4.07157 21.4976 4.00075 21.3151 4L0.690098 4.00003ZM3.30998 5.3345C3.54922 5.3345 3.77882 5.42675 3.94806 5.59071C4.11717 5.75482 4.21232 5.97739 4.21232 6.20936C4.21232 6.44132 4.11717 6.66392 3.94806 6.82801C3.77879 6.99212 3.54923 7.08422 3.30998 7.08422C3.07058 7.08422 2.84115 6.99212 2.6719 6.82801C2.50264 6.6639 2.40764 6.44132 2.40764 6.20936C2.40764 5.97739 2.50264 5.7548 2.6719 5.59071C2.84117 5.42675 3.07057 5.3345 3.30998 5.3345ZM5.8881 5.3345C6.12735 5.3345 6.35694 5.42675 6.52618 5.59071C6.6953 5.75482 6.79044 5.97739 6.79044 6.20936C6.79044 6.44132 6.6953 6.66392 6.52618 6.82801C6.35692 6.99212 6.12735 7.08422 5.8881 7.08422C5.64871 7.08422 5.41927 6.99212 5.25003 6.82801C5.08076 6.6639 4.98577 6.44132 4.98577 6.20936C4.98577 5.97739 5.08076 5.7548 5.25003 5.59071C5.41929 5.42675 5.6487 5.3345 5.8881 5.3345ZM8.46623 5.3345C8.70547 5.3345 8.93506 5.42675 9.1043 5.59071C9.27342 5.75482 9.36856 5.97739 9.36856 6.20936C9.36856 6.44132 9.27342 6.66392 9.1043 6.82801C8.93504 6.99212 8.70548 7.08422 8.46623 7.08422C8.22683 7.08422 7.99739 6.99212 7.82815 6.82801C7.65888 6.6639 7.56389 6.44132 7.56389 6.20936C7.56389 5.97739 7.65888 5.7548 7.82815 5.59071C7.99741 5.42675 8.22682 5.3345 8.46623 5.3345ZM0.000163059 9.75173V21.3309C-0.00121807 21.7009 0.308619 22.0014 0.690255 22H3.72095C3.80765 21.703 3.91201 21.3541 3.93303 21.2267C3.95973 21.0608 3.97876 20.893 3.97876 20.6761C3.97876 20.0402 3.86075 19.7227 3.74105 19.5252C3.62151 19.3278 3.4794 19.2236 3.25902 19.0371C3.03865 18.8505 2.69366 18.4666 2.68568 17.9695C2.67771 17.4725 2.88318 17.0163 3.27909 16.3513C3.675 15.6864 3.97747 15.2886 4.42588 15.0469C4.87413 14.8053 5.39239 14.9017 5.66919 14.9935C5.94619 15.0853 6.10841 15.1532 6.34455 15.1549C6.58073 15.1569 6.92323 15.0941 7.49134 14.7761C8.05929 14.4582 8.28259 14.2033 8.39904 14.0041C8.51551 13.8048 8.53608 13.638 8.5924 13.3597C8.64872 13.0813 8.82243 12.5958 9.26241 12.3403C9.70237 12.0847 10.2107 12.0304 11.0027 12.0304C11.7947 12.0304 12.3043 12.0847 12.7443 12.3403C13.1842 12.5959 13.3526 13.0813 13.4089 13.3597C13.4652 13.6382 13.4844 13.805 13.6009 14.0041C13.7174 14.2033 13.9419 14.4582 14.51 14.7761C15.0779 15.0941 15.4205 15.1567 15.6567 15.1549C15.8928 15.153 16.0552 15.0853 16.332 14.9935C16.609 14.9017 17.1271 14.8051 17.5753 15.0469C18.0236 15.2886 18.326 15.6864 18.7221 16.3513C19.118 17.0163 19.3237 17.4725 19.3155 17.9695C19.3075 18.4666 18.9626 18.8505 18.7422 19.0371C18.5218 19.2236 18.3797 19.3278 18.2602 19.5252C18.1406 19.7226 18.0266 20.0402 18.0266 20.6761C18.0266 20.893 18.0401 21.0609 18.0668 21.2267C18.0918 21.3776 18.1517 21.6831 18.2011 22H21.3149C21.6946 21.9987 22.0012 21.699 21.9998 21.3309L22 9.75173H0.000163059ZM11.0029 13.3644C10.3076 13.3644 9.9979 13.464 9.96765 13.4817C9.93726 13.4994 9.98391 13.4086 9.94217 13.6145C9.90043 13.8205 9.84718 14.2281 9.59305 14.6626C9.33893 15.0971 8.89652 15.5288 8.17645 15.9319C7.45642 16.335 6.84934 16.4928 6.33415 16.4891C5.819 16.4851 5.42704 16.3253 5.22232 16.2573C5.01761 16.1895 5.12165 16.1912 5.09065 16.2078C5.05981 16.2244 4.81934 16.4363 4.47159 17.0201C4.12385 17.604 4.06015 17.91 4.06078 17.9446C4.06139 17.9789 4.00001 17.8952 4.16283 18.0331C4.32566 18.171 4.66204 18.4201 4.92293 18.8507C5.14713 19.2209 5.50224 20.3931 5.08667 21.9999H7.36937C7.36799 21.5801 7.36538 21.06 7.36538 21.017C7.36538 19.0786 9.00096 17.4929 11.0002 17.4929H11.0016C13.0009 17.4929 14.6364 19.0786 14.6364 21.017C14.6364 21.06 14.6338 21.5802 14.6324 21.9999H16.8453C16.5824 20.4748 16.8688 19.1887 17.0777 18.8507C17.3385 18.4201 17.6761 18.171 17.839 18.0331C18.0018 17.8952 17.9458 17.9789 17.9464 17.9446C17.947 17.9102 17.8778 17.6041 17.53 17.0201C17.1825 16.4363 16.942 16.2244 16.911 16.2078C16.8801 16.1911 16.9828 16.1893 16.7781 16.2573C16.5734 16.3253 16.1868 16.4853 15.6716 16.4891C15.1565 16.4931 14.5454 16.335 13.8254 15.9319C13.1053 15.5288 12.6629 15.0971 12.4088 14.6626C12.1546 14.2282 12.1 13.8205 12.0583 13.6145C12.0165 13.4086 12.0644 13.4994 12.0342 13.4817C12.0038 13.464 11.6982 13.3644 11.0029 13.3644ZM11.0003 18.8257C9.74421 18.8257 8.74046 19.7989 8.74046 21.0167C8.74046 21.0435 8.74307 21.5736 8.74445 21.9996H13.256C13.2574 21.5736 13.26 21.0434 13.26 21.0167C13.26 19.7989 12.2563 18.8257 11.0003 18.8257Z" fill="#14008D"/>
</svg>
