<svg width="187" height="27" viewBox="0 0 187 27" fill="none" xmlns="http://www.w3.org/2000/svg">
<path d="M31.43 4.6H37.172C38.6387 4.6 39.8853 5.09867 40.912 6.096C41.924 7.09333 42.43 8.318 42.43 9.77C42.43 11.222 41.924 12.4467 40.912 13.444C39.8853 14.4413 38.6387 14.94 37.172 14.94H34.466V20H31.43V4.6ZM34.466 12.102H37.172C37.8173 12.102 38.3527 11.882 38.778 11.442C39.2033 10.9873 39.416 10.43 39.416 9.77C39.416 9.09533 39.2033 8.538 38.778 8.098C38.3527 7.658 37.8173 7.438 37.172 7.438H34.466V12.102ZM51.9041 10.298V9H54.7421V20H51.9041V18.702C51.0534 19.7727 49.8581 20.308 48.3181 20.308C46.8514 20.308 45.5901 19.7507 44.5341 18.636C43.4928 17.5067 42.9721 16.128 42.9721 14.5C42.9721 12.8867 43.4928 11.5153 44.5341 10.386C45.5901 9.25667 46.8514 8.692 48.3181 8.692C49.8581 8.692 51.0534 9.22733 51.9041 10.298ZM46.6681 16.744C47.2401 17.316 47.9661 17.602 48.8461 17.602C49.7261 17.602 50.4521 17.316 51.0241 16.744C51.6108 16.1573 51.9041 15.4093 51.9041 14.5C51.9041 13.5907 51.6108 12.85 51.0241 12.278C50.4521 11.6913 49.7261 11.398 48.8461 11.398C47.9661 11.398 47.2401 11.6913 46.6681 12.278C46.0961 12.85 45.8101 13.5907 45.8101 14.5C45.8101 15.4093 46.0961 16.1573 46.6681 16.744ZM60.1536 9V10.892C60.4029 10.2027 60.8282 9.682 61.4296 9.33C62.0309 8.96333 62.7202 8.78 63.4976 8.78V11.948C62.6322 11.8307 61.8549 12.0067 61.1656 12.476C60.4909 12.9307 60.1536 13.686 60.1536 14.742V20H57.3156V9H60.1536ZM67.4316 12.124C67.4316 12.5933 68.099 12.9967 69.4336 13.334C69.903 13.4367 70.3283 13.5613 70.7096 13.708C71.091 13.84 71.4723 14.038 71.8536 14.302C72.2496 14.5513 72.5576 14.8887 72.7776 15.314C72.9976 15.7393 73.1076 16.2307 73.1076 16.788C73.1076 17.9173 72.6823 18.79 71.8316 19.406C70.981 20.0073 69.9323 20.308 68.6856 20.308C66.427 20.308 64.887 19.4353 64.0656 17.69L66.5296 16.304C66.867 17.2573 67.5856 17.734 68.6856 17.734C69.6976 17.734 70.2036 17.4187 70.2036 16.788C70.2036 16.3187 69.5363 15.9153 68.2016 15.578C67.703 15.446 67.2776 15.314 66.9256 15.182C66.5736 15.05 66.1923 14.8593 65.7816 14.61C65.371 14.346 65.0556 14.016 64.8356 13.62C64.6303 13.2093 64.5276 12.7327 64.5276 12.19C64.5276 11.1047 64.9236 10.254 65.7156 9.638C66.5223 9.00733 67.5196 8.692 68.7076 8.692C69.6023 8.692 70.4163 8.89733 71.1496 9.308C71.883 9.704 72.4623 10.276 72.8876 11.024L70.4676 12.344C70.1156 11.596 69.529 11.222 68.7076 11.222C68.341 11.222 68.033 11.31 67.7836 11.486C67.549 11.6473 67.4316 11.86 67.4316 12.124ZM85.4744 15.666H77.1804C77.547 17.0447 78.581 17.734 80.2824 17.734C81.3677 17.734 82.189 17.3673 82.7464 16.634L85.0344 17.954C83.949 19.5233 82.3504 20.308 80.2384 20.308C78.4197 20.308 76.9604 19.758 75.8604 18.658C74.7604 17.558 74.2104 16.172 74.2104 14.5C74.2104 12.8573 74.753 11.4787 75.8384 10.364C76.909 9.24933 78.3024 8.692 80.0184 8.692C81.6464 8.692 82.9737 9.24933 84.0004 10.364C85.0564 11.4787 85.5844 12.8573 85.5844 14.5C85.5844 14.808 85.5477 15.1967 85.4744 15.666ZM77.1364 13.466H82.7464C82.585 12.7473 82.255 12.1973 81.7564 11.816C81.2724 11.4347 80.693 11.244 80.0184 11.244C79.2557 11.244 78.625 11.442 78.1264 11.838C77.6277 12.2193 77.2977 12.762 77.1364 13.466ZM90.4036 9V10.892C90.6529 10.2027 91.0782 9.682 91.6796 9.33C92.2809 8.96333 92.9702 8.78 93.7476 8.78V11.948C92.8822 11.8307 92.1049 12.0067 91.4156 12.476C90.7409 12.9307 90.4036 13.686 90.4036 14.742V20H87.5656V9H90.4036ZM103.36 14.72H95.1097V11.992H103.36V14.72ZM114.445 10.298V9H117.283V20H114.445V18.702C113.594 19.7727 112.399 20.308 110.859 20.308C109.392 20.308 108.131 19.7507 107.075 18.636C106.034 17.5067 105.513 16.128 105.513 14.5C105.513 12.8867 106.034 11.5153 107.075 10.386C108.131 9.25667 109.392 8.692 110.859 8.692C112.399 8.692 113.594 9.22733 114.445 10.298ZM109.209 16.744C109.781 17.316 110.507 17.602 111.387 17.602C112.267 17.602 112.993 17.316 113.565 16.744C114.152 16.1573 114.445 15.4093 114.445 14.5C114.445 13.5907 114.152 12.85 113.565 12.278C112.993 11.6913 112.267 11.398 111.387 11.398C110.507 11.398 109.781 11.6913 109.209 12.278C108.637 12.85 108.351 13.5907 108.351 14.5C108.351 15.4093 108.637 16.1573 109.209 16.744ZM126.259 8.692C127.74 8.692 129.001 9.25667 130.043 10.386C131.099 11.5153 131.627 12.8867 131.627 14.5C131.627 16.1427 131.099 17.5213 130.043 18.636C129.016 19.7507 127.755 20.308 126.259 20.308C124.719 20.308 123.531 19.7727 122.695 18.702V24.4H119.857V9H122.695V10.298C123.531 9.22733 124.719 8.692 126.259 8.692ZM123.553 16.744C124.125 17.316 124.851 17.602 125.731 17.602C126.611 17.602 127.337 17.316 127.909 16.744C128.495 16.1573 128.789 15.4093 128.789 14.5C128.789 13.5907 128.495 12.85 127.909 12.278C127.337 11.6913 126.611 11.398 125.731 11.398C124.851 11.398 124.125 11.6913 123.553 12.278C122.981 12.85 122.695 13.5907 122.695 14.5C122.695 15.4093 122.981 16.1573 123.553 16.744ZM135.036 7.68C134.567 7.68 134.156 7.51133 133.804 7.174C133.467 6.822 133.298 6.41133 133.298 5.942C133.298 5.47267 133.467 5.062 133.804 4.71C134.156 4.358 134.567 4.182 135.036 4.182C135.52 4.182 135.931 4.358 136.268 4.71C136.62 5.062 136.796 5.47267 136.796 5.942C136.796 6.41133 136.62 6.822 136.268 7.174C135.931 7.51133 135.52 7.68 135.036 7.68ZM136.466 20H133.628V9H136.466V20ZM142.584 18.416C142.584 18.9293 142.4 19.3693 142.034 19.736C141.667 20.1027 141.227 20.286 140.714 20.286C140.2 20.286 139.76 20.1027 139.394 19.736C139.027 19.3693 138.844 18.9293 138.844 18.416C138.844 17.9027 139.027 17.4627 139.394 17.096C139.76 16.7293 140.2 16.546 140.714 16.546C141.227 16.546 141.667 16.7293 142.034 17.096C142.4 17.4627 142.584 17.9027 142.584 18.416ZM149.305 20.308C147.648 20.308 146.262 19.7507 145.147 18.636C144.047 17.5213 143.497 16.1427 143.497 14.5C143.497 12.8573 144.047 11.4787 145.147 10.364C146.262 9.24933 147.648 8.692 149.305 8.692C150.376 8.692 151.351 8.94867 152.231 9.462C153.111 9.97533 153.779 10.6647 154.233 11.53L151.791 12.96C151.571 12.5053 151.234 12.146 150.779 11.882C150.339 11.618 149.841 11.486 149.283 11.486C148.433 11.486 147.729 11.772 147.171 12.344C146.614 12.9013 146.335 13.62 146.335 14.5C146.335 15.3507 146.614 16.0693 147.171 16.656C147.729 17.2133 148.433 17.492 149.283 17.492C149.855 17.492 150.361 17.3673 150.801 17.118C151.256 16.854 151.593 16.4947 151.813 16.04L154.277 17.448C153.793 18.328 153.104 19.0247 152.209 19.538C151.329 20.0513 150.361 20.308 149.305 20.308ZM164.979 18.636C163.864 19.7507 162.485 20.308 160.843 20.308C159.2 20.308 157.821 19.7507 156.707 18.636C155.592 17.5213 155.035 16.1427 155.035 14.5C155.035 12.872 155.592 11.5007 156.707 10.386C157.836 9.25667 159.215 8.692 160.843 8.692C162.471 8.692 163.849 9.25667 164.979 10.386C166.108 11.5153 166.673 12.8867 166.673 14.5C166.673 16.128 166.108 17.5067 164.979 18.636ZM158.709 16.678C159.281 17.25 159.992 17.536 160.843 17.536C161.693 17.536 162.405 17.25 162.977 16.678C163.549 16.106 163.835 15.38 163.835 14.5C163.835 13.62 163.549 12.894 162.977 12.322C162.405 11.75 161.693 11.464 160.843 11.464C159.992 11.464 159.281 11.75 158.709 12.322C158.151 12.9087 157.873 13.6347 157.873 14.5C157.873 15.3653 158.151 16.0913 158.709 16.678ZM180.835 8.692C182.096 8.692 183.101 9.10267 183.849 9.924C184.612 10.7453 184.993 11.8453 184.993 13.224V20H182.155V13.422C182.155 12.762 181.994 12.2487 181.671 11.882C181.348 11.5153 180.894 11.332 180.307 11.332C179.662 11.332 179.156 11.5447 178.789 11.97C178.437 12.3953 178.261 13.0113 178.261 13.818V20H175.423V13.422C175.423 12.762 175.262 12.2487 174.939 11.882C174.616 11.5153 174.162 11.332 173.575 11.332C172.944 11.332 172.438 11.552 172.057 11.992C171.69 12.4173 171.507 13.026 171.507 13.818V20H168.669V9H171.507V10.166C172.167 9.18333 173.186 8.692 174.565 8.692C175.929 8.692 176.926 9.22 177.557 10.276C178.276 9.22 179.368 8.692 180.835 8.692Z" fill="#14008D"/>
<path d="M0.690098 4.00003C0.506866 3.99944 0.331004 4.06967 0.201345 4.19539C0.0718241 4.32097 -0.000760068 4.49162 6.00297e-06 4.66926V8.41871H22V4.66926C22.0008 4.4925 21.9289 4.32259 21.8005 4.19714C21.672 4.07157 21.4976 4.00075 21.3151 4L0.690098 4.00003ZM3.30998 5.3345C3.54922 5.3345 3.77882 5.42675 3.94806 5.59071C4.11717 5.75482 4.21232 5.97739 4.21232 6.20936C4.21232 6.44132 4.11717 6.66392 3.94806 6.82801C3.77879 6.99212 3.54923 7.08422 3.30998 7.08422C3.07058 7.08422 2.84115 6.99212 2.6719 6.82801C2.50264 6.6639 2.40764 6.44132 2.40764 6.20936C2.40764 5.97739 2.50264 5.7548 2.6719 5.59071C2.84117 5.42675 3.07057 5.3345 3.30998 5.3345ZM5.8881 5.3345C6.12735 5.3345 6.35694 5.42675 6.52618 5.59071C6.6953 5.75482 6.79044 5.97739 6.79044 6.20936C6.79044 6.44132 6.6953 6.66392 6.52618 6.82801C6.35692 6.99212 6.12735 7.08422 5.8881 7.08422C5.64871 7.08422 5.41927 6.99212 5.25003 6.82801C5.08076 6.6639 4.98577 6.44132 4.98577 6.20936C4.98577 5.97739 5.08076 5.7548 5.25003 5.59071C5.41929 5.42675 5.6487 5.3345 5.8881 5.3345ZM8.46623 5.3345C8.70547 5.3345 8.93506 5.42675 9.1043 5.59071C9.27342 5.75482 9.36856 5.97739 9.36856 6.20936C9.36856 6.44132 9.27342 6.66392 9.1043 6.82801C8.93504 6.99212 8.70548 7.08422 8.46623 7.08422C8.22683 7.08422 7.99739 6.99212 7.82815 6.82801C7.65888 6.6639 7.56389 6.44132 7.56389 6.20936C7.56389 5.97739 7.65888 5.7548 7.82815 5.59071C7.99741 5.42675 8.22682 5.3345 8.46623 5.3345ZM0.000163059 9.75173V21.3309C-0.00121807 21.7009 0.308619 22.0014 0.690255 22H3.72095C3.80765 21.703 3.91201 21.3541 3.93303 21.2267C3.95973 21.0608 3.97876 20.893 3.97876 20.6761C3.97876 20.0402 3.86075 19.7227 3.74105 19.5252C3.62151 19.3278 3.4794 19.2236 3.25902 19.0371C3.03865 18.8505 2.69366 18.4666 2.68568 17.9695C2.67771 17.4725 2.88318 17.0163 3.27909 16.3513C3.675 15.6864 3.97747 15.2886 4.42588 15.0469C4.87413 14.8053 5.39239 14.9017 5.66919 14.9935C5.94619 15.0853 6.10841 15.1532 6.34455 15.1549C6.58073 15.1569 6.92323 15.0941 7.49134 14.7761C8.05929 14.4582 8.28259 14.2033 8.39904 14.0041C8.51551 13.8048 8.53608 13.638 8.5924 13.3597C8.64872 13.0813 8.82243 12.5958 9.26241 12.3403C9.70237 12.0847 10.2107 12.0304 11.0027 12.0304C11.7947 12.0304 12.3043 12.0847 12.7443 12.3403C13.1842 12.5959 13.3526 13.0813 13.4089 13.3597C13.4652 13.6382 13.4844 13.805 13.6009 14.0041C13.7174 14.2033 13.9419 14.4582 14.51 14.7761C15.0779 15.0941 15.4205 15.1567 15.6567 15.1549C15.8928 15.153 16.0552 15.0853 16.332 14.9935C16.609 14.9017 17.1271 14.8051 17.5753 15.0469C18.0236 15.2886 18.326 15.6864 18.7221 16.3513C19.118 17.0163 19.3237 17.4725 19.3155 17.9695C19.3075 18.4666 18.9626 18.8505 18.7422 19.0371C18.5218 19.2236 18.3797 19.3278 18.2602 19.5252C18.1406 19.7226 18.0266 20.0402 18.0266 20.6761C18.0266 20.893 18.0401 21.0609 18.0668 21.2267C18.0918 21.3776 18.1517 21.6831 18.2011 22H21.3149C21.6946 21.9987 22.0012 21.699 21.9998 21.3309L22 9.75173H0.000163059ZM11.0029 13.3644C10.3076 13.3644 9.9979 13.464 9.96765 13.4817C9.93726 13.4994 9.98391 13.4086 9.94217 13.6145C9.90043 13.8205 9.84718 14.2281 9.59305 14.6626C9.33893 15.0971 8.89652 15.5288 8.17645 15.9319C7.45642 16.335 6.84934 16.4928 6.33415 16.4891C5.819 16.4851 5.42704 16.3253 5.22232 16.2573C5.01761 16.1895 5.12165 16.1912 5.09065 16.2078C5.05981 16.2244 4.81934 16.4363 4.47159 17.0201C4.12385 17.604 4.06015 17.91 4.06078 17.9446C4.06139 17.9789 4.00001 17.8952 4.16283 18.0331C4.32566 18.171 4.66204 18.4201 4.92293 18.8507C5.14713 19.2209 5.50224 20.3931 5.08667 21.9999H7.36937C7.36799 21.5801 7.36538 21.06 7.36538 21.017C7.36538 19.0786 9.00096 17.4929 11.0002 17.4929H11.0016C13.0009 17.4929 14.6364 19.0786 14.6364 21.017C14.6364 21.06 14.6338 21.5802 14.6324 21.9999H16.8453C16.5824 20.4748 16.8688 19.1887 17.0777 18.8507C17.3385 18.4201 17.6761 18.171 17.839 18.0331C18.0018 17.8952 17.9458 17.9789 17.9464 17.9446C17.947 17.9102 17.8778 17.6041 17.53 17.0201C17.1825 16.4363 16.942 16.2244 16.911 16.2078C16.8801 16.1911 16.9828 16.1893 16.7781 16.2573C16.5734 16.3253 16.1868 16.4853 15.6716 16.4891C15.1565 16.4931 14.5454 16.335 13.8254 15.9319C13.1053 15.5288 12.6629 15.0971 12.4088 14.6626C12.1546 14.2282 12.1 13.8205 12.0583 13.6145C12.0165 13.4086 12.0644 13.4994 12.0342 13.4817C12.0038 13.464 11.6982 13.3644 11.0029 13.3644ZM11.0003 18.8257C9.74421 18.8257 8.74046 19.7989 8.74046 21.0167C8.74046 21.0435 8.74307 21.5736 8.74445 21.9996H13.256C13.2574 21.5736 13.26 21.0434 13.26 21.0167C13.26 19.7989 12.2563 18.8257 11.0003 18.8257Z" fill="#14008D"/>
</svg>
